<svg width="20" height="20" viewBox="0 0 20 20" fill="none" xmlns="http://www.w3.org/2000/svg">
<path d="M19.8881 14.9201V17.9201C19.8893 18.1986 19.8322 18.4743 19.7206 18.7294C19.6091 18.9846 19.4454 19.2137 19.2402 19.402C19.035 19.5902 18.7927 19.7336 18.5289 19.8228C18.265 19.912 17.9855 19.9452 17.7081 19.9201C14.631 19.5857 11.6751 18.5342 9.07812 16.8501C6.66195 15.3148 4.61345 13.2663 3.07812 10.8501C1.3881 8.2413 0.33636 5.27109 0.00811671 2.1801C-0.0168728 1.90356 0.0159916 1.62486 0.104617 1.36172C0.193243 1.09859 0.335688 0.856786 0.522883 0.651718C0.710078 0.44665 0.937922 0.282806 1.19191 0.170619C1.44589 0.0584315 1.72046 0.000358432 1.99812 9.69523e-05H4.99812C5.48343 -0.00467949 5.95391 0.167176 6.32188 0.48363C6.68985 0.800084 6.9302 1.23954 6.99812 1.7201C7.12474 2.68016 7.35957 3.62282 7.69812 4.5301C7.83266 4.88802 7.86178 5.27701 7.78203 5.65098C7.70227 6.02494 7.51698 6.36821 7.24812 6.6401L5.97812 7.9101C7.40168 10.4136 9.47457 12.4865 11.9781 13.9101L13.2481 12.6401C13.52 12.3712 13.8633 12.1859 14.2372 12.1062C14.6112 12.0264 15.0002 12.0556 15.3581 12.1901C16.2654 12.5286 17.2081 12.7635 18.1681 12.8901C18.6539 12.9586 19.0975 13.2033 19.4147 13.5776C19.7318 13.9519 19.9003 14.4297 19.8881 14.9201Z" fill="#15B2F5"/>
</svg>
