<svg width="24" height="24" viewBox="0 0 24 24" fill="none" xmlns="http://www.w3.org/2000/svg">
<g clip-path="url(#clip0_14_96)">
<path d="M11.6098 1.57761C11.8674 1.52637 12.1326 1.52637 12.3902 1.57761L15.628 2.22165C15.8856 2.27289 16.1306 2.37437 16.349 2.52028L19.0938 4.35436C19.3122 4.50028 19.4997 4.68778 19.6456 4.90616L21.4797 7.65104C21.6256 7.86942 21.7271 8.11441 21.7783 8.372L22.4224 11.6098C22.4736 11.8674 22.4736 12.1326 22.4224 12.3902L21.7783 15.628C21.7271 15.8856 21.6256 16.1306 21.4797 16.349L19.6456 19.0938C19.4997 19.3122 19.3122 19.4997 19.0938 19.6456L16.349 21.4797C16.1306 21.6256 15.8856 21.7271 15.628 21.7783L12.3902 22.4224C12.1326 22.4736 11.8674 22.4736 11.6098 22.4224L8.372 21.7783C8.11441 21.7271 7.86943 21.6256 7.65104 21.4797L4.90616 19.6456C4.68778 19.4997 4.50028 19.3122 4.35436 19.0938L2.52028 16.349C2.37437 16.1306 2.27289 15.8856 2.22165 15.628L1.57761 12.3902C1.52637 12.1326 1.52637 11.8674 1.57761 11.6098L2.22165 8.372C2.27289 8.11441 2.37437 7.86943 2.52028 7.65104L4.35436 4.90616C4.50028 4.68778 4.68778 4.50028 4.90616 4.35436L7.65104 2.52028C7.86942 2.37437 8.11441 2.27289 8.372 2.22165L11.6098 1.57761Z" stroke="white" stroke-width="2"/>
<path d="M16 10L11.625 14L9 12.1176" stroke="white" stroke-width="2" stroke-linecap="round" stroke-linejoin="round"/>
</g>
<defs>
<clipPath id="clip0_14_96">
<rect width="24" height="24" fill="white"/>
</clipPath>
</defs>
</svg>
