<svg width="515" height="435" viewBox="0 0 515 435" fill="none" xmlns="http://www.w3.org/2000/svg">
<g opacity="0.5">
<path d="M0 257.5C0 115.287 115.287 0 257.5 0C399.713 0 515 115.287 515 257.5C515 399.713 399.713 515 257.5 515C115.287 515 0 399.713 0 257.5Z" fill="#15B2F5"/>
<path d="M25.6432 257.506C25.6432 129.455 129.449 25.6494 257.5 25.6494C385.551 25.6494 489.357 129.455 489.357 257.506C489.357 385.557 385.551 489.363 257.5 489.363C129.449 489.363 25.6432 385.557 25.6432 257.506Z" fill="#15B2F5"/>
<path d="M145.9 209.166C145.9 206.169 147.205 203.32 149.476 201.364L246.921 117.381C250.785 114.051 256.505 114.051 260.369 117.381L357.814 201.364C360.084 203.32 361.39 206.169 361.39 209.166V278.889C361.39 321.553 326.804 356.139 284.14 356.139H151.05C148.206 356.139 145.9 353.833 145.9 350.989V209.166Z" fill="white"/>
<path d="M279.164 253.357C279.164 239.263 290.589 227.838 304.682 227.838C318.776 227.838 330.201 239.263 330.201 253.357V277.458C330.201 291.551 318.776 302.976 304.682 302.976C290.589 302.976 279.164 291.551 279.164 277.458V253.357Z" fill="#15B2F5"/>
<path d="M284.834 253.358C284.834 242.397 293.72 233.511 304.682 233.511C315.643 233.511 324.529 242.397 324.529 253.358V277.459C324.529 288.421 315.643 297.307 304.682 297.307C293.72 297.307 284.834 288.421 284.834 277.459V253.358Z" fill="white"/>
<path d="M116.128 199.458C116.128 197.047 117.162 194.751 118.968 193.153L244.082 82.4189C249.951 77.2241 258.781 77.2474 264.622 82.4731L388.368 193.167C390.146 194.757 391.162 197.029 391.162 199.414C391.162 206.619 382.671 210.466 377.254 205.715L264.51 106.827C258.704 101.734 250.029 101.711 244.196 106.773L130.067 205.817C124.615 210.548 116.128 206.676 116.128 199.458Z" fill="white"/>
<path d="M170.954 267.644C170.954 244.938 189.361 226.531 212.067 226.531C234.773 226.531 253.18 244.938 253.18 267.644V339.947C253.18 362.653 234.773 381.06 212.067 381.06C189.361 381.06 170.954 362.653 170.954 339.947V267.644Z" fill="#15B2F5"/>
<path d="M180.57 267.651C180.57 250.243 194.682 236.131 212.09 236.131C229.498 236.131 243.61 250.243 243.61 267.651V333.896C243.61 351.304 229.498 365.415 212.09 365.415C194.682 365.415 180.57 351.304 180.57 333.896V267.651Z" fill="white"/>
<path d="M238.802 467.458C160.014 467.216 12.3726 426.978 46.6834 174.163C50.5847 179.452 113.257 233.998 137.298 260.71C212.712 288.806 260.889 291.661 279.742 395.385C280.768 401.03 270.857 406.04 266.013 402.965C257.475 397.545 245.248 391.463 228.033 385.063C195.183 383.089 123.017 362.408 97.1584 295.471C97.1584 295.471 88.8309 283.186 86.4245 296.7C84.0181 310.214 98.8133 375.507 147.861 410.133C173.155 417.747 223.334 441.06 250.463 464.65C250.916 465.044 251.377 465.431 251.844 465.81C323.202 455.928 373.952 434.326 409.294 406.406C446.475 361.142 470.938 288.617 459.814 175.82C459.892 167.868 467.848 168.28 470.548 174.59C490.299 239.885 492.513 340.662 409.294 406.406C369.211 455.201 314.35 472.316 273.359 474.052C265.41 474.389 258.031 470.826 251.844 465.81C247.571 466.402 243.224 466.951 238.802 467.458Z" fill="#15B2F5"/>
<path d="M128.362 360.736C130.108 363.827 132.156 366.797 134.448 369.645C143.262 379.323 161.373 391.831 192.976 398.346C214.142 399.01 263.062 411.234 289.409 454.816L266.965 457.387C266.991 454.736 255.771 442.518 210.684 414.851C192.384 409.827 154.29 394.304 134.448 369.645C131.289 366.176 129.325 363.071 128.362 360.736Z" fill="#15B2F5"/>
<path d="M220.329 413.557C163.858 408.595 62.256 365.355 107.622 232.092C109.985 235.163 131.723 266.408 157.951 278.876C208.897 300.261 247.566 307.247 255.634 358.466C256.479 363.835 247.009 368.435 242.226 365.855C236.841 362.951 229.702 359.695 220.329 356.14C196.937 353.069 146.893 337.568 133.85 300.141C133.85 300.141 128.888 293.053 126.052 300.141C123.839 305.675 126.551 328.753 143.23 348.862C153.264 360.959 168.462 366.905 182.83 373.278C198.173 380.083 215.571 389.228 227.282 398.094C233.23 402.598 239.99 406.348 247.445 406.661C304.641 409.065 401.057 383.823 403.705 258.319C404.414 254.066 410.085 254.775 411.502 258.319C424.262 310.774 403.496 413.557 220.329 413.557Z" fill="white"/>
<path d="M205.444 371.026C191.267 366.773 154.417 354.12 144.777 337.108C147.448 340.313 164.047 353.73 194.102 361.102C209.224 362.756 243.296 372.302 258.607 397.253H242.304C242.54 395.836 235.499 388.605 205.444 371.026Z" fill="white"/>
</g>
</svg>
