<svg width="85" height="32" viewBox="0 0 85 32" fill="none" xmlns="http://www.w3.org/2000/svg">
<path d="M0 16C0 7.16344 7.20754 0 16.0985 0C24.9894 0 32.197 7.16344 32.197 16C32.197 24.8366 24.9894 32 16.0985 32C7.20754 32 0 24.8366 0 16Z" fill="#15B2F5"/>
<path d="M1.60317 16.0004C1.60317 8.04382 8.09294 1.59375 16.0985 1.59375C24.104 1.59375 30.5938 8.04382 30.5938 16.0004C30.5938 23.957 24.104 30.407 16.0985 30.407C8.09294 30.407 1.60317 23.957 1.60317 16.0004Z" fill="#15B2F5"/>
<path d="M9.12142 12.9967C9.12142 12.8105 9.20303 12.6335 9.34497 12.5119L15.4371 7.2936C15.6787 7.08666 16.0363 7.08666 16.2779 7.2936L22.37 12.5119C22.5119 12.6335 22.5935 12.8105 22.5935 12.9967V17.329C22.5935 19.98 20.4313 22.129 17.764 22.129H9.44339C9.26557 22.129 9.12142 21.9858 9.12142 21.809V12.9967Z" fill="white"/>
<path d="M17.4529 15.7426C17.4529 14.8668 18.1671 14.1569 19.0482 14.1569C19.9293 14.1569 20.6436 14.8668 20.6436 15.7426V17.2401C20.6436 18.1158 19.9293 18.8257 19.0482 18.8257C18.1671 18.8257 17.4529 18.1158 17.4529 17.2401V15.7426Z" fill="#15B2F5"/>
<path d="M17.8074 15.7427C17.8074 15.0615 18.3629 14.5094 19.0482 14.5094C19.7335 14.5094 20.2891 15.0615 20.2891 15.7427V17.2402C20.2891 17.9213 19.7335 18.4734 19.0482 18.4734C18.3629 18.4734 17.8074 17.9213 17.8074 17.2402V15.7427Z" fill="white"/>
<path d="M7.26015 12.3935C7.26015 12.2437 7.32478 12.101 7.43766 12.0017L15.2596 5.12117C15.6266 4.79839 16.1785 4.79984 16.5438 5.12454L24.2802 12.0026C24.3913 12.1014 24.4548 12.2426 24.4548 12.3908C24.4548 12.8385 23.924 13.0775 23.5853 12.7823L16.5367 6.63777C16.1737 6.32133 15.6314 6.31991 15.2667 6.63444L8.13155 12.7886C7.79075 13.0826 7.26015 12.842 7.26015 12.3935Z" fill="white"/>
<path d="M10.6878 16.6303C10.6878 15.2194 11.8385 14.0757 13.2581 14.0757C14.6777 14.0757 15.8284 15.2194 15.8284 16.6303V21.1229C15.8284 22.5338 14.6777 23.6775 13.2581 23.6775C11.8385 23.6775 10.6878 22.5338 10.6878 21.1229V16.6303Z" fill="#15B2F5"/>
<path d="M11.289 16.6307C11.289 15.5491 12.1712 14.6722 13.2595 14.6722C14.3478 14.6722 15.2301 15.5491 15.2301 16.6307V20.7469C15.2301 21.8286 14.3478 22.7054 13.2595 22.7054C12.1712 22.7054 11.289 21.8286 11.289 20.7469V16.6307Z" fill="white"/>
<path d="M14.9295 29.0459C10.0038 29.0309 0.773512 26.5306 2.91857 10.8218C3.16247 11.1504 7.08065 14.5397 8.58362 16.1995C13.2984 17.9452 16.3103 18.1226 17.489 24.5676C17.5532 24.9184 16.9335 25.2297 16.6307 25.0386C16.0969 24.7018 15.3325 24.3239 14.2563 23.9262C12.2025 23.8036 7.69082 22.5185 6.07419 18.3593C6.07419 18.3593 5.55356 17.596 5.40312 18.4357C5.25268 19.2755 6.17765 23.3324 9.24403 25.484C10.8254 25.9571 13.9625 27.4056 15.6586 28.8715C15.6869 28.896 15.7157 28.92 15.7449 28.9435C20.2061 28.3295 23.3789 26.9872 25.5884 25.2524C27.9129 22.4399 29.4423 17.9335 28.7468 10.9247C28.7517 10.4306 29.2491 10.4562 29.4179 10.8483C30.6527 14.9054 30.7911 21.1673 25.5884 25.2524C23.0825 28.2843 19.6526 29.3478 17.09 29.4557C16.593 29.4766 16.1317 29.2552 15.7449 28.9435C15.4777 28.9803 15.206 29.0145 14.9295 29.0459Z" fill="#15B2F5"/>
<path d="M8.02497 22.4147C8.13414 22.6067 8.26221 22.7913 8.4055 22.9683C8.9565 23.5696 10.0888 24.3468 12.0645 24.7516C13.3878 24.7929 16.4462 25.5524 18.0934 28.2604L16.6902 28.4201C16.6918 28.2554 15.9904 27.4963 13.1716 25.7772C12.0275 25.465 9.64598 24.5004 8.4055 22.9683C8.208 22.7527 8.08518 22.5598 8.02497 22.4147Z" fill="#15B2F5"/>
<path d="M13.7746 25.6967C10.2441 25.3884 3.89215 22.7017 6.72838 14.4212C6.8761 14.6121 8.23512 16.5535 9.87482 17.3282C13.0599 18.657 15.4774 19.0911 15.9818 22.2736C16.0347 22.6072 15.4426 22.893 15.1436 22.7327C14.8069 22.5523 14.3606 22.35 13.7746 22.1291C12.3122 21.9382 9.18349 20.9751 8.36807 18.6495C8.36807 18.6495 8.05786 18.2091 7.88059 18.6495C7.7422 18.9934 7.91175 20.4274 8.9545 21.6768C9.58182 22.4285 10.532 22.798 11.4302 23.1939C12.3895 23.6168 13.4772 24.1851 14.2093 24.736C14.5812 25.0158 15.0038 25.2488 15.4699 25.2683C19.0457 25.4176 25.0735 23.8492 25.239 16.0509C25.2833 15.7866 25.6378 15.8307 25.7265 16.0509C26.5242 19.3102 25.2259 25.6967 13.7746 25.6967Z" fill="white"/>
<path d="M12.844 23.054C11.9577 22.7898 9.65393 22.0036 9.05123 20.9465C9.21823 21.1457 10.2559 21.9793 12.1349 22.4374C13.0804 22.5402 15.2105 23.1333 16.1677 24.6837H15.1484C15.1632 24.5956 14.723 24.1464 12.844 23.054Z" fill="white"/>
<path d="M37.9924 8.64H47.2257V10.7179H40.6235V13.0373H43.7939C45.1775 13.0373 46.2289 13.3219 46.9479 13.891C47.6779 14.4601 48.0428 15.2816 48.0428 16.3554C48.0428 17.483 47.6397 18.3581 46.8335 18.9809C46.0273 19.6038 44.8888 19.9152 43.418 19.9152H37.9924V8.64ZM43.2709 17.9823C43.9464 17.9823 44.4639 17.8534 44.8234 17.5957C45.183 17.3272 45.3627 16.9407 45.3627 16.436C45.3627 15.4481 44.6655 14.9541 43.2709 14.9541H40.6235V17.9823H43.2709Z" fill="white"/>
<path d="M52.5484 11.0883C53.4962 11.0883 54.3406 11.2816 55.0814 11.6682C55.8332 12.044 56.4215 12.5756 56.8464 13.2628C57.2713 13.9501 57.4837 14.7232 57.4837 15.5823C57.4837 16.4413 57.2713 17.2145 56.8464 17.9017C56.4215 18.589 55.8332 19.1259 55.0814 19.5125C54.3406 19.8883 53.4962 20.0762 52.5484 20.0762C51.7095 20.0762 50.9469 19.942 50.2605 19.6736C49.585 19.3944 49.024 18.997 48.5773 18.4816L50.0317 17.1286C50.6963 17.8051 51.5025 18.1434 52.4503 18.1434C53.0822 18.1434 53.627 17.9877 54.0846 17.6762C54.5421 17.3648 54.8526 16.9407 55.0161 16.4038H51.3227V14.6803H54.9834C54.8091 14.1648 54.4986 13.7568 54.0519 13.4561C53.6052 13.1554 53.0713 13.0051 52.4503 13.0051C51.5134 13.0051 50.7072 13.3487 50.0317 14.036L48.5773 12.6991C49.024 12.1729 49.585 11.7756 50.2605 11.5071C50.9469 11.2279 51.7095 11.0883 52.5484 11.0883Z" fill="white"/>
<path d="M63.7239 11.1205C64.6608 11.1205 65.4779 11.3031 66.1752 11.6682C66.8724 12.0333 67.4117 12.5541 67.793 13.2306C68.1744 13.9071 68.365 14.6964 68.365 15.5984C68.365 16.4789 68.1852 17.2574 67.8257 17.934C67.4662 18.5997 66.9596 19.1205 66.3059 19.4964C65.6522 19.8615 64.9005 20.044 64.0507 20.044C62.9285 20.044 62.0515 19.695 61.4196 18.997V23.04H58.8702V15.6145C58.8702 14.7232 59.0718 13.9393 59.4749 13.2628C59.878 12.5863 60.4445 12.0601 61.1745 11.6843C61.9044 11.3085 62.7542 11.1205 63.7239 11.1205ZM63.6095 17.9823C64.274 17.9823 64.8133 17.7621 65.2273 17.3219C65.6413 16.8816 65.8483 16.3071 65.8483 15.5984C65.8483 14.8789 65.6413 14.2991 65.2273 13.8588C64.8133 13.4078 64.274 13.1823 63.6095 13.1823C62.9449 13.1823 62.4056 13.4024 61.9916 13.8427C61.5885 14.283 61.3869 14.8628 61.3869 15.5823C61.3869 16.3017 61.5885 16.8816 61.9916 17.3219C62.3947 17.7621 62.934 17.9823 63.6095 17.9823Z" fill="white"/>
<path d="M81.4047 11.1205C82.5051 11.1205 83.3767 11.4427 84.0195 12.087C84.6732 12.7205 85 13.6762 85 14.9541V19.9152H82.4506V15.3407C82.4506 14.6534 82.3036 14.1434 82.0094 13.8105C81.7261 13.4668 81.3176 13.295 80.7837 13.295C80.1845 13.295 79.7106 13.4883 79.362 13.8749C79.0133 14.2507 78.839 14.8145 78.839 15.5662V19.9152H76.2897V15.3407C76.2897 13.9769 75.734 13.295 74.6228 13.295C74.0344 13.295 73.566 13.4883 73.2173 13.8749C72.8687 14.2507 72.6944 14.8145 72.6944 15.5662V19.9152H70.145V11.2494H72.58V12.2481C72.9068 11.883 73.3045 11.6038 73.773 11.4105C74.2523 11.2172 74.7753 11.1205 75.3418 11.1205C75.9628 11.1205 76.5239 11.244 77.0251 11.491C77.5262 11.7272 77.9293 12.0762 78.2344 12.538C78.5939 12.087 79.046 11.738 79.5908 11.491C80.1464 11.244 80.7511 11.1205 81.4047 11.1205Z" fill="white"/>
</svg>
